<svg width="91" height="81" viewBox="0 0 91 81" fill="none" xmlns="http://www.w3.org/2000/svg">
<g clip-path="url(#clip0)">
<path d="M75.6 61.6H74.2C74.2085 61.6545 74.204 61.7102 74.187 61.7626C74.1699 61.815 74.1407 61.8627 74.1017 61.9017C74.0627 61.9407 74.015 61.9699 73.9626 61.987C73.9102 62.0041 73.8544 62.0085 73.7999 62H51.5C51.4455 62.0085 51.3897 62.0041 51.3373 61.987C51.2849 61.9699 51.2372 61.9407 51.1982 61.9017C51.1592 61.8627 51.13 61.815 51.1129 61.7626C51.0959 61.7102 51.0914 61.6545 51.1 61.6V19.4C51.0914 19.3455 51.0959 19.2898 51.1129 19.2373C51.13 19.1849 51.1592 19.1373 51.1982 19.0983C51.2372 19.0593 51.2849 19.03 51.3373 19.013C51.3897 18.9959 51.4455 18.9914 51.5 19H73.7999C73.8544 18.9914 73.9102 18.9959 73.9626 19.013C74.015 19.03 74.0627 19.0593 74.1017 19.0983C74.1407 19.1373 74.1699 19.1849 74.187 19.2373C74.204 19.2898 74.2085 19.3455 74.2 19.4V61.5H77V19.4C76.9921 18.5272 76.6419 17.6924 76.0247 17.0752C75.4076 16.458 74.5727 16.1078 73.7 16.1H51.5C50.6272 16.1078 49.7923 16.458 49.1752 17.0752C48.558 17.6924 48.2078 18.5272 48.2 19.4V61.5C48.2078 62.3728 48.558 63.2076 49.1752 63.8248C49.7923 64.442 50.6272 64.7921 51.5 64.8H73.7999C74.6727 64.7921 75.5076 64.442 76.1247 63.8248C76.7419 63.2076 77.0921 62.3728 77.1 61.5H75.6V61.6Z" fill="black"/>
<path d="M43.5 34C43.5 34.5 42.9 35 42.1 35H13.6C12.8 35 12.2 34.5 12.2 34C12.2 33.5 12.8 33 13.6 33H42.2C42.9 33 43.5 33.4 43.5 34Z" fill="black"/>
<path d="M43.5 42.9C43.5 43.5 42.9 43.9 42.1 43.9H13.6C12.8 43.9 12.2 43.5 12.2 42.9C12.2 42.3 12.8 41.9 13.6 41.9H42.2C42.5017 41.8776 42.8011 41.9672 43.041 42.1517C43.2808 42.3362 43.4442 42.6026 43.5 42.9Z" fill="black"/>
<path d="M43.5 51.9C43.5 52.4 42.9 52.9 42.1 52.9H13.6C12.8 52.9 12.2 52.4 12.2 51.9C12.2 51.4 12.8 50.9 13.6 50.9H42.2C42.9 50.9 43.5 51.3 43.5 51.9Z" fill="black"/>
<path d="M43.5 60.8C43.5 61.4 42.9 61.8 42.1 61.8H13.6C12.8 61.8 12.2 61.4 12.2 60.8C12.2 60.2 12.8 59.8 13.6 59.8H42.2C42.5017 59.7776 42.8011 59.8672 43.041 60.0517C43.2808 60.2362 43.4442 60.5026 43.5 60.8Z" fill="black"/>
<path d="M90.4 5.59998C90.3829 4.89613 90.3161 4.19438 90.2 3.49998L89.9 2.29998C89.7819 2.07481 89.6816 1.84077 89.6 1.59998C89.5 1.49998 89.4 1.29998 89.3 1.19998C89.0842 1.00996 88.8497 0.842423 88.6 0.699977C88.3108 0.569942 88.0093 0.469433 87.7 0.399977C86.8146 0.196012 85.9085 0.0953402 85 0.0999771L5.79998 -2.32561e-05C5.165 -0.0166121 4.5297 0.0168249 3.89998 0.0999771C3.59128 0.118564 3.28749 0.186071 2.99998 0.299977C2.69064 0.369432 2.38912 0.469942 2.09998 0.599977C1.85026 0.742423 1.61571 0.909956 1.39998 1.09998C1.19095 1.29995 1.02134 1.5374 0.899976 1.79998C0.740754 2.12236 0.607013 2.45672 0.499977 2.79998C0.226793 3.74215 0.0920504 4.71903 0.0999767 5.69998L-2.32211e-05 75.1C-0.0166121 75.735 0.0168245 76.3702 0.0999767 77C0.0999767 77.3 0.199977 77.6 0.199977 77.8C0.299977 78.1 0.299976 78.3 0.399976 78.7L0.499977 79C0.681073 79.3082 0.918536 79.5796 1.19998 79.8C1.53347 80.0556 1.90454 80.258 2.29998 80.4C2.81696 80.5918 3.35354 80.726 3.89998 80.8C4.42903 80.8831 4.96469 80.9165 5.49998 80.9L84.7 81C85.335 81.0166 85.9702 80.9831 86.6 80.9C86.9087 80.8814 87.2125 80.8139 87.5 80.7C87.8093 80.6305 88.1108 80.53 88.4 80.4C88.6497 80.2575 88.8842 80.09 89.1 79.9C89.309 79.7 89.4786 79.4626 89.6 79.2C89.7592 78.8776 89.8929 78.5432 90 78.2C90.2732 77.2578 90.4079 76.2809 90.4 75.3L90.5 5.99998L90.4 5.59998ZM86 5.89998L85.9 75.2C85.9 75.5 85.8 76 85.8 76.5C85.5 76.5 85.1 76.6 84.8 76.6L5.59998 76.5C5.39998 76.5 4.89998 76.4 4.49998 76.4C4.49998 76 4.39998 75.6 4.39998 75.2L4.49998 5.89998C4.49998 5.59998 4.59998 5.09998 4.59998 4.59998C4.89998 4.59998 5.29998 4.49998 5.59998 4.49998L84.8 4.59998C85.1364 4.58359 85.4734 4.61729 85.8 4.69998C85.9629 5.07787 86.0315 5.48968 86 5.89998Z" fill="black"/>
</g>
<defs>
<clipPath id="clip0">
<rect width="90.5" height="81" fill="white"/>
</clipPath>
</defs>
</svg>
