<svg width="63" height="55" viewBox="0 0 63 55" fill="none" xmlns="http://www.w3.org/2000/svg">
<g clip-path="url(#clip0)">
<path d="M58.14 0H4.14C3.0419 0.00527625 1.99042 0.444518 1.21488 1.22194C0.439331 1.99936 0.00262702 3.05189 0 4.15V48.52C0.00264947 50.2236 0.681263 51.8565 1.88684 53.0602C3.09241 54.2639 4.72639 54.94 6.43 54.94H55.82C57.5236 54.94 59.1576 54.2639 60.3632 53.0602C61.5687 51.8565 62.2473 50.2236 62.25 48.52V4.15C62.2449 3.05783 61.8115 2.01127 61.0429 1.23525C60.2744 0.459228 59.2321 0.0157028 58.14 0ZM4.14 3H58.14C58.4459 2.99999 58.7395 3.12083 58.9567 3.33621C59.174 3.5516 59.2974 3.84409 59.3 4.15V10.4H3V4.15C3.00256 3.84752 3.12318 3.558 3.33614 3.34317C3.5491 3.12835 3.83755 3.0052 4.14 3ZM55.82 51.94H6.46C5.55204 51.94 4.68112 51.58 4.03815 50.9389C3.39519 50.2978 3.03265 49.428 3.03 48.52V13.4H59.25V48.52C59.2474 49.428 58.8848 50.2978 58.2418 50.9389C57.5989 51.58 56.728 51.94 55.82 51.94Z" fill="black"/>
<path d="M42.95 8.18004C43.2447 8.18201 43.5333 8.09655 43.7795 7.93448C44.0256 7.7724 44.2181 7.54098 44.3327 7.26948C44.4473 6.99799 44.4788 6.6986 44.4233 6.4092C44.3677 6.11979 44.2276 5.85335 44.0206 5.64358C43.8136 5.43381 43.5491 5.29012 43.2605 5.23069C42.9718 5.17126 42.672 5.19875 42.399 5.30969C42.126 5.42063 41.892 5.61004 41.7267 5.85396C41.5613 6.09788 41.472 6.38536 41.47 6.68004C41.4687 6.87571 41.5059 7.06973 41.5796 7.25101C41.6533 7.43228 41.7619 7.59728 41.8993 7.73657C42.0368 7.87586 42.2003 7.98671 42.3806 8.0628C42.5608 8.13889 42.7543 8.17873 42.95 8.18004Z" fill="black"/>
<path d="M48.42 8.18004C48.7147 8.18201 49.0033 8.09655 49.2494 7.93448C49.4955 7.7724 49.6881 7.54098 49.8027 7.26948C49.9173 6.99799 49.9488 6.6986 49.8932 6.4092C49.8377 6.11979 49.6976 5.85335 49.4906 5.64358C49.2836 5.43381 49.0191 5.29012 48.7304 5.23069C48.4418 5.17126 48.142 5.19875 47.869 5.30969C47.596 5.42063 47.362 5.61004 47.1967 5.85396C47.0313 6.09788 46.942 6.38536 46.94 6.68004C46.9387 6.87571 46.9759 7.06973 47.0496 7.25101C47.1232 7.43228 47.2319 7.59728 47.3693 7.73657C47.5067 7.87586 47.6703 7.98671 47.8505 8.0628C48.0308 8.13889 48.2243 8.17873 48.42 8.18004Z" fill="black"/>
<path d="M53.8799 8.18004C54.1746 8.18201 54.4633 8.09655 54.7094 7.93448C54.9555 7.7724 55.148 7.54098 55.2626 7.26948C55.3772 6.99799 55.4087 6.6986 55.3532 6.4092C55.2976 6.11979 55.1575 5.85335 54.9505 5.64358C54.7436 5.43381 54.479 5.29012 54.1904 5.23069C53.9018 5.17126 53.602 5.19875 53.329 5.30969C53.056 5.42063 52.822 5.61004 52.6566 5.85396C52.4912 6.09788 52.4019 6.38536 52.3999 6.68004C52.3986 6.87571 52.4359 7.06973 52.5095 7.25101C52.5832 7.43228 52.6918 7.59728 52.8293 7.73657C52.9667 7.87586 53.1302 7.98671 53.3105 8.0628C53.4908 8.13889 53.6843 8.17873 53.8799 8.18004Z" fill="black"/>
<path d="M6.92004 8.18994H30.2C30.5979 8.18994 30.9794 8.03191 31.2607 7.7506C31.542 7.4693 31.7 7.08777 31.7 6.68994C31.7 6.29212 31.542 5.91059 31.2607 5.62928C30.9794 5.34798 30.5979 5.18994 30.2 5.18994H6.92004C6.52222 5.18994 6.14069 5.34798 5.85938 5.62928C5.57808 5.91059 5.42004 6.29212 5.42004 6.68994C5.42004 7.08777 5.57808 7.4693 5.85938 7.7506C6.14069 8.03191 6.52222 8.18994 6.92004 8.18994Z" fill="black"/>
<path d="M54.5799 29.35H7.69995C7.30213 29.35 6.9206 29.1919 6.63929 28.9106C6.35799 28.6293 6.19995 28.2478 6.19995 27.85V18.85C6.19995 18.4522 6.35799 18.0706 6.63929 17.7893C6.9206 17.508 7.30213 17.35 7.69995 17.35H54.5799C54.9778 17.35 55.3593 17.508 55.6406 17.7893C55.9219 18.0706 56.0799 18.4522 56.0799 18.85V27.85C56.0799 28.2478 55.9219 28.6293 55.6406 28.9106C55.3593 29.1919 54.9778 29.35 54.5799 29.35ZM9.19995 26.35H53.0799V20.35H9.19995V26.35Z" fill="black"/>
<path d="M36.28 47.99H26C25.6022 47.99 25.2206 47.8319 24.9393 47.5506C24.658 47.2693 24.5 46.8878 24.5 46.49V35.21C24.5 34.8121 24.658 34.4306 24.9393 34.1493C25.2206 33.868 25.6022 33.71 26 33.71H36.28C36.6778 33.71 37.0594 33.868 37.3407 34.1493C37.622 34.4306 37.78 34.8121 37.78 35.21V46.47C37.7826 46.6669 37.7465 46.8625 37.6735 47.0455C37.6006 47.2285 37.4923 47.3954 37.3548 47.5365C37.2174 47.6777 37.0535 47.7904 36.8725 47.8682C36.6915 47.946 36.497 47.9874 36.3 47.99H36.28ZM27.5 44.99H34.78V36.71H27.5V44.99Z" fill="black"/>
<path d="M17.5 36.71H7.63C7.23218 36.71 6.85065 36.5519 6.56934 36.2706C6.28804 35.9893 6.13 35.6078 6.13 35.21C6.13 34.8121 6.28804 34.4306 6.56934 34.1493C6.85065 33.868 7.23218 33.71 7.63 33.71H17.5C17.8978 33.71 18.2794 33.868 18.5607 34.1493C18.842 34.4306 19 34.8121 19 35.21C19 35.6078 18.842 35.9893 18.5607 36.2706C18.2794 36.5519 17.8978 36.71 17.5 36.71Z" fill="black"/>
<path d="M54.65 36.71H44.78C44.3822 36.71 44.0007 36.5519 43.7194 36.2706C43.4381 35.9893 43.28 35.6078 43.28 35.21C43.28 34.8121 43.4381 34.4306 43.7194 34.1493C44.0007 33.868 44.3822 33.71 44.78 33.71H54.65C55.0479 33.71 55.4294 33.868 55.7107 34.1493C55.992 34.4306 56.15 34.8121 56.15 35.21C56.15 35.6078 55.992 35.9893 55.7107 36.2706C55.4294 36.5519 55.0479 36.71 54.65 36.71Z" fill="black"/>
<path d="M17.5 42.35H7.63C7.23218 42.35 6.85065 42.1919 6.56934 41.9106C6.28804 41.6293 6.13 41.2478 6.13 40.85C6.13 40.4522 6.28804 40.0706 6.56934 39.7893C6.85065 39.508 7.23218 39.35 7.63 39.35H17.5C17.8978 39.35 18.2794 39.508 18.5607 39.7893C18.842 40.0706 19 40.4522 19 40.85C19 41.2478 18.842 41.6293 18.5607 41.9106C18.2794 42.1919 17.8978 42.35 17.5 42.35Z" fill="black"/>
<path d="M54.65 42.35H44.78C44.3822 42.35 44.0007 42.1919 43.7194 41.9106C43.4381 41.6293 43.28 41.2478 43.28 40.85C43.28 40.4522 43.4381 40.0706 43.7194 39.7893C44.0007 39.508 44.3822 39.35 44.78 39.35H54.65C55.0479 39.35 55.4294 39.508 55.7107 39.7893C55.992 40.0706 56.15 40.4522 56.15 40.85C56.15 41.2478 55.992 41.6293 55.7107 41.9106C55.4294 42.1919 55.0479 42.35 54.65 42.35Z" fill="black"/>
<path d="M17.5 47.99H7.63C7.23218 47.99 6.85065 47.832 6.56934 47.5507C6.28804 47.2693 6.13 46.8878 6.13 46.49C6.13 46.0922 6.28804 45.7106 6.56934 45.4293C6.85065 45.148 7.23218 44.99 7.63 44.99H17.5C17.8978 44.99 18.2794 45.148 18.5607 45.4293C18.842 45.7106 19 46.0922 19 46.49C19 46.8878 18.842 47.2693 18.5607 47.5507C18.2794 47.832 17.8978 47.99 17.5 47.99Z" fill="black"/>
<path d="M54.65 47.99H44.78C44.3822 47.99 44.0007 47.832 43.7194 47.5507C43.4381 47.2693 43.28 46.8878 43.28 46.49C43.28 46.0922 43.4381 45.7106 43.7194 45.4293C44.0007 45.148 44.3822 44.99 44.78 44.99H54.65C55.0479 44.99 55.4294 45.148 55.7107 45.4293C55.992 45.7106 56.15 46.0922 56.15 46.49C56.15 46.8878 55.992 47.2693 55.7107 47.5507C55.4294 47.832 55.0479 47.99 54.65 47.99Z" fill="black"/>
</g>
<defs>
<clipPath id="clip0">
<rect width="62.25" height="54.94" fill="white"/>
</clipPath>
</defs>
</svg>
