<svg width="16" height="16" viewBox="0 0 16 16" fill="none" xmlns="http://www.w3.org/2000/svg">
<g clip-path="url(#clip0)">
<path d="M14.4 0H1.6C0.72 0 0 0.72 0 1.6V14.4C0 15.28 0.72 16 1.6 16H14.4C15.28 16 16 15.28 16 14.4V1.6C16 0.72 15.28 0 14.4 0ZM14.72 14.4C14.72 14.5734 14.5734 14.72 14.4 14.72H1.6C1.42656 14.72 1.28 14.5734 1.28 14.4V1.6C1.28 1.42656 1.42656 1.28 1.6 1.28H14.4C14.5734 1.28 14.72 1.42656 14.72 1.6V14.4Z" fill="#B12029" stroke="#D6DBDF" stroke-width="0.32"/>
<path d="M7.91449 10.9818C7.61497 10.9818 7.36089 11.0849 7.15449 11.2849C6.94809 11.4855 6.84473 11.7373 6.84473 12.033C6.84473 12.3642 6.95161 12.625 7.16473 12.8103C7.37817 12.9962 7.62841 13.0861 7.91417 13.0861C8.19193 13.0861 8.43609 12.9911 8.64857 12.8042C8.85849 12.618 8.96473 12.3578 8.96473 12.033C8.96473 11.7373 8.86233 11.4855 8.65977 11.2849C8.46041 11.0852 8.21017 10.9818 7.91449 10.9818Z" fill="#B12029" stroke="#D6DBDF" stroke-width="0.32"/>
<path d="M9.8867 2.80704C9.36478 2.55392 8.7635 2.42944 8.08542 2.42944C7.35102 2.42944 6.71134 2.5808 6.16382 2.87776C5.61406 3.17952 5.1955 3.55808 4.90974 4.0176C4.62398 4.47296 4.47998 4.92608 4.47998 5.37184C4.47998 5.58624 4.5699 5.78624 4.75134 5.97632C4.93086 6.15712 5.1539 6.25184 5.41566 6.25184C5.86206 6.25184 6.1651 5.9856 6.32574 5.45568C6.49438 4.952 6.70078 4.56704 6.94494 4.30688C7.18878 4.04544 7.56766 3.91488 8.08542 3.91488C8.52606 3.91488 8.88606 4.0448 9.16542 4.30048C9.44414 4.56064 9.58462 4.87712 9.58462 5.25408C9.58462 5.44672 9.53758 5.62528 9.44734 5.78528C9.35486 5.95008 9.24158 6.10016 9.10974 6.23232C8.97566 6.36832 8.75678 6.56736 8.45726 6.82944C8.11422 7.13056 7.84222 7.3872 7.6419 7.6064C7.43966 7.82592 7.27774 8.07488 7.15486 8.36864C7.0339 8.65664 6.97246 8.99552 6.97246 9.39232C6.97246 9.70432 7.05534 9.94304 7.22302 10.1018C7.3891 10.2605 7.59486 10.3418 7.83838 10.3418C8.30686 10.3418 8.58526 10.096 8.67678 9.608C8.7283 9.37984 8.76638 9.22048 8.79134 9.12608C8.81822 9.03616 8.85278 8.94624 8.90078 8.85184C8.94846 8.76192 9.02078 8.6592 9.11678 8.54944C9.21086 8.43904 9.34014 8.31392 9.49886 8.16448C10.0765 7.64928 10.4752 7.28352 10.6989 7.06432C10.9219 6.84928 11.1145 6.5888 11.2758 6.28672C11.4381 5.9856 11.52 5.63488 11.52 5.23584C11.52 4.73216 11.3789 4.25984 11.0934 3.83168C10.8086 3.39872 10.4067 3.056 9.8867 2.80704Z" fill="#B12029" stroke="#D6DBDF" stroke-width="0.32"/>
</g>
<defs>
<clipPath id="clip0">
<rect width="16" height="16" fill="white"/>
</clipPath>
</defs>
</svg>
