<svg width="6" height="23" viewBox="0 0 6 23" fill="none" xmlns="http://www.w3.org/2000/svg">
<g clip-path="url(#clip0)">
<path d="M5.62502 2.81302C5.62522 2.25662 5.46041 1.71266 5.15144 1.24993C4.84246 0.787206 4.4032 0.426502 3.88921 0.213439C3.37521 0.000376344 2.80958 -0.0554735 2.26385 0.0529537C1.71811 0.161381 1.21679 0.429215 0.823288 0.82258C0.429782 1.21595 0.16177 1.71717 0.0531488 2.26287C-0.0554725 2.80856 0.000176251 3.37422 0.213056 3.88828C0.425936 4.40235 0.786484 4.84174 1.2491 5.15088C1.71172 5.46002 2.25562 5.62502 2.81202 5.62502C3.55726 5.62292 4.27138 5.32601 4.79843 4.79914C5.32549 4.27227 5.62265 3.55826 5.62502 2.81302ZM5.62502 19.688C5.62522 19.1316 5.46041 18.5877 5.15144 18.1249C4.84246 17.6622 4.4032 17.3015 3.88921 17.0884C3.37521 16.8754 2.80958 16.8195 2.26385 16.928C1.71811 17.0364 1.21679 17.3042 0.823288 17.6976C0.429782 18.0909 0.16177 18.5922 0.0531488 19.1379C-0.0554725 19.6836 0.000176251 20.2492 0.213056 20.7633C0.425936 21.2773 0.786484 21.7167 1.2491 22.0259C1.71172 22.335 2.25562 22.5 2.81202 22.5C3.55726 22.4979 4.27138 22.201 4.79843 21.6741C5.32549 21.1473 5.62265 20.4333 5.62502 19.688ZM5.62502 11.251C5.62522 10.6946 5.46041 10.1507 5.15144 9.68793C4.84246 9.22521 4.4032 8.8645 3.88921 8.65144C3.37521 8.43838 2.80958 8.38253 2.26385 8.49095C1.71811 8.59938 1.21679 8.86721 0.823288 9.26058C0.429782 9.65395 0.16177 10.1552 0.0531488 10.7009C-0.0554725 11.2466 0.000176251 11.8122 0.213056 12.3263C0.425936 12.8403 0.786484 13.2797 1.2491 13.5889C1.71172 13.898 2.25562 14.063 2.81202 14.063C3.55743 14.0609 4.2717 13.7639 4.79878 13.2368C5.32587 12.7097 5.62291 11.9954 5.62502 11.25V11.251Z" fill="#114A71"/>
</g>
<defs>
<clipPath id="clip0">
<rect width="5.625" height="22.5" fill="white"/>
</clipPath>
</defs>
</svg>
