<svg width="20" height="20" viewBox="0 0 20 20" fill="none" xmlns="http://www.w3.org/2000/svg">
<g clip-path="url(#clip0)">
<path d="M17.452 17.451H2.181V2.181H9V0H2.181C1.60305 0.00158343 1.04922 0.231875 0.640549 0.640549C0.231875 1.04922 0.00158343 1.60305 0 2.181V17.451C0.00158343 18.029 0.231875 18.5828 0.640549 18.9915C1.04922 19.4001 1.60305 19.6304 2.181 19.632H17.452C18.0299 19.6304 18.5838 19.4001 18.9925 18.9915C19.4011 18.5828 19.6314 18.029 19.633 17.451V10.634H17.452V17.451ZM11.452 0V2.181H15.924L4.908 13.2L6.435 14.727L17.452 3.708V8.18H19.633V0H11.452Z" fill="#05416A"/>
</g>
<defs>
<clipPath id="clip0">
<rect width="19.633" height="19.633" fill="white"/>
</clipPath>
</defs>
</svg>
