<svg width="13" height="17" viewBox="0 0 13 17" fill="none" xmlns="http://www.w3.org/2000/svg">
<g clip-path="url(#clip0)">
<path d="M7.42993 4.51003V0.00402832H0.800049C0.588739 0.00402419 0.38597 0.0876229 0.236084 0.236572C0.0861978 0.385522 0.00156483 0.587721 0.000244141 0.799026V16.171C0.000244141 16.2761 0.0205873 16.3801 0.060791 16.4772C0.100995 16.5742 0.160332 16.6624 0.234619 16.7367C0.308906 16.811 0.396836 16.8699 0.493896 16.9101C0.590957 16.9503 0.694991 16.971 0.800049 16.971H11.9299C12.035 16.971 12.139 16.9503 12.2361 16.9101C12.3331 16.8699 12.4216 16.811 12.4958 16.7367C12.5701 16.6624 12.629 16.5742 12.6692 16.4772C12.7094 16.3801 12.7302 16.2761 12.7302 16.171V5.30502H8.21997C8.11584 5.30489 8.01286 5.2842 7.91675 5.24414C7.82063 5.20408 7.73331 5.14544 7.65991 5.07158C7.58651 4.99772 7.52847 4.91009 7.48901 4.81372C7.44956 4.71736 7.4294 4.61415 7.42993 4.51003V4.51003ZM4.25024 9.28102C4.24998 9.31617 4.24248 9.35093 4.22876 9.38329C4.21504 9.41565 4.19525 9.44498 4.17017 9.4696C4.14508 9.49423 4.11537 9.51365 4.08276 9.52676C4.05015 9.53988 4.01537 9.54642 3.98022 9.54602H3.71997C3.65018 9.54535 3.58096 9.55861 3.51636 9.58501C3.45175 9.61141 3.39334 9.65042 3.34399 9.69977C3.29465 9.74912 3.25565 9.80782 3.22925 9.87242C3.20285 9.93703 3.18952 10.0062 3.19019 10.076V11.136C3.18952 11.2058 3.20285 11.275 3.22925 11.3396C3.25565 11.4042 3.29465 11.4629 3.34399 11.5123C3.39334 11.5616 3.45175 11.6006 3.51636 11.627C3.58096 11.6534 3.65018 11.6667 3.71997 11.666H3.98022C4.01537 11.6656 4.05015 11.6722 4.08276 11.6853C4.11537 11.6984 4.14508 11.7178 4.17017 11.7425C4.19525 11.7671 4.21504 11.7964 4.22876 11.8288C4.24248 11.8611 4.24998 11.8959 4.25024 11.931V12.461C4.24998 12.4962 4.24248 12.5309 4.22876 12.5633C4.21504 12.5956 4.19525 12.625 4.17017 12.6496C4.14508 12.6742 4.11537 12.6936 4.08276 12.7068C4.05015 12.7199 4.01537 12.7264 3.98022 12.726H3.71997C3.51113 12.7262 3.30454 12.6851 3.11157 12.6053C2.91861 12.5254 2.74313 12.4083 2.59546 12.2606C2.44779 12.1129 2.33059 11.9376 2.25073 11.7446C2.17087 11.5517 2.13 11.3449 2.13013 11.136V10.076C2.12986 9.86711 2.17093 9.66018 2.25073 9.4671C2.33053 9.27402 2.44729 9.09857 2.59497 8.95079C2.74266 8.80301 2.91805 8.6858 3.11108 8.60588C3.30412 8.52596 3.51105 8.4849 3.71997 8.48503H3.98022C4.01546 8.48464 4.05009 8.49122 4.08276 8.50439C4.11544 8.51757 4.14556 8.53709 4.17065 8.56181C4.19575 8.58654 4.21558 8.61599 4.22925 8.64847C4.24291 8.68094 4.25011 8.71579 4.25024 8.75102V9.28102V9.28102ZM5.71021 12.726H5.3103C5.27516 12.7264 5.23989 12.7199 5.20728 12.7068C5.17466 12.6936 5.14496 12.6742 5.11987 12.6496C5.09479 12.625 5.075 12.5956 5.06128 12.5633C5.04756 12.5309 5.04054 12.4962 5.04028 12.461V11.931C5.04054 11.8959 5.04756 11.8611 5.06128 11.8288C5.075 11.7964 5.09479 11.7671 5.11987 11.7425C5.14496 11.7178 5.17466 11.6984 5.20728 11.6853C5.23989 11.6722 5.27516 11.6656 5.3103 11.666H5.71021C5.78514 11.6767 5.86146 11.6604 5.92554 11.6201C5.98962 11.5799 6.0374 11.5182 6.0603 11.446C6.05368 11.3964 6.02839 11.3511 5.98999 11.319L5.26001 10.697C5.12357 10.5828 5.01371 10.4403 4.93774 10.2794C4.86178 10.1185 4.82156 9.94297 4.82007 9.76503C4.8382 9.40872 4.99673 9.0741 5.26099 8.8344C5.52524 8.5947 5.87384 8.46943 6.23022 8.48602H6.63013C6.66527 8.48563 6.70006 8.49218 6.73267 8.50529C6.76528 8.51841 6.79498 8.53783 6.82007 8.56245C6.84515 8.58708 6.86494 8.61641 6.87866 8.64877C6.89238 8.68113 6.89989 8.71587 6.90015 8.75102V9.28102C6.89989 9.31617 6.89238 9.35093 6.87866 9.38329C6.86494 9.41565 6.84515 9.44498 6.82007 9.4696C6.79498 9.49423 6.76528 9.51365 6.73267 9.52676C6.70006 9.53988 6.66527 9.54642 6.63013 9.54602H6.21997C6.14661 9.53682 6.07266 9.55371 6.0105 9.59375C5.94834 9.63379 5.90209 9.69443 5.88013 9.76503C5.88089 9.79023 5.88749 9.81489 5.89966 9.83698C5.91183 9.85906 5.92905 9.87793 5.94995 9.89203L6.67993 10.514C6.81637 10.6283 6.92672 10.7708 7.00269 10.9317C7.07865 11.0926 7.11838 11.2681 7.11987 11.446C7.10174 11.8024 6.94366 12.1371 6.67944 12.377C6.41522 12.6169 6.06669 12.7423 5.71021 12.726V12.726ZM8.48999 8.75102V9.43703C8.48572 10.1024 8.66971 10.7555 9.02026 11.321C9.36651 10.7536 9.54966 10.1018 9.55005 9.43703V8.74803C9.54977 8.67843 9.57708 8.61152 9.62573 8.56175C9.67438 8.51198 9.74072 8.48334 9.8103 8.48203H10.3401C10.3753 8.48163 10.4104 8.48821 10.4431 8.50139C10.4758 8.51457 10.5054 8.53408 10.5305 8.55881C10.5556 8.58353 10.5754 8.61299 10.5891 8.64546C10.6028 8.67794 10.61 8.7128 10.6101 8.74803V9.43703C10.6178 10.5921 10.1852 11.7067 9.40015 12.554C9.35116 12.6073 9.29161 12.6498 9.22534 12.6789C9.15907 12.708 9.08727 12.723 9.01489 12.723C8.94252 12.723 8.8712 12.708 8.80493 12.6789C8.73866 12.6498 8.67911 12.6073 8.63013 12.554C7.84806 11.7056 7.41872 10.5909 7.42993 9.43703V8.74803C7.42899 8.71335 7.43534 8.67883 7.448 8.64653C7.46066 8.61423 7.47941 8.58479 7.50366 8.55998C7.52791 8.53517 7.55711 8.51548 7.58911 8.50209C7.62112 8.4887 7.65549 8.48188 7.69019 8.48203H8.21997C8.25545 8.48163 8.29061 8.4883 8.32349 8.50166C8.35636 8.51503 8.38624 8.53481 8.41138 8.55986C8.43652 8.58491 8.45648 8.61471 8.46997 8.64754C8.48346 8.68036 8.49026 8.71554 8.48999 8.75102ZM12.49 3.48303L9.25024 0.236023C9.10166 0.0875837 8.90021 0.00415316 8.69019 0.00402832H8.48999V4.24503H12.7302V4.04503C12.7277 3.83332 12.6412 3.63123 12.49 3.48303V3.48303Z" fill="white"/>
</g>
<defs>
<clipPath id="clip0">
<rect width="12.72" height="16.968" fill="white"/>
</clipPath>
</defs>
</svg>
