<svg width="15" height="12" viewBox="0 0 15 12" fill="none" xmlns="http://www.w3.org/2000/svg">
<g clip-path="url(#clip0)">
<path d="M13.5 -2.42423e-05H1.5C1.30521 -0.00200543 1.11196 0.0346203 0.931396 0.107733C0.750837 0.180846 0.586531 0.288988 0.447998 0.42594C0.309465 0.562892 0.199448 0.725938 0.124268 0.905646C0.0490876 1.08535 0.0102638 1.27817 0.0100098 1.47297L0 10.312C0.00130438 10.5073 0.0412546 10.7005 0.117432 10.8804C0.193609 11.0603 0.304465 11.2233 0.443848 11.3602C0.58323 11.4971 0.748448 11.6051 0.929688 11.678C1.11093 11.7509 1.30466 11.7872 1.5 11.785H13.5C13.6953 11.7872 13.8891 11.7509 14.0703 11.678C14.2516 11.6051 14.4168 11.4971 14.5562 11.3602C14.6955 11.2233 14.8064 11.0603 14.8826 10.8804C14.9587 10.7005 14.9987 10.5073 15 10.312V1.47297C14.9987 1.27762 14.9587 1.08446 14.8826 0.904578C14.8064 0.724692 14.6955 0.561623 14.5562 0.42475C14.4168 0.287877 14.2516 0.179898 14.0703 0.107001C13.8891 0.0341035 13.6953 -0.00226795 13.5 -2.42423e-05V-2.42423e-05ZM13.5 10.312H1.5V5.89298H13.5V10.312ZM13.5 2.94599H1.5V1.47297H13.5V2.94599Z" fill="#fff"/>
</g>
<defs>
<clipPath id="clip0">
<rect width="15" height="11.781" fill="white"/>
</clipPath>
</defs>
</svg>
