<svg width="15" height="8" viewBox="0 0 15 8" fill="none" xmlns="http://www.w3.org/2000/svg">
<g clip-path="url(#clip0)">
<path d="M15 3.84904C15.0103 4.32702 14.8753 4.79685 14.6128 5.19645C14.3503 5.59605 13.9728 5.90661 13.53 6.08705V7.21003C13.5292 7.33709 13.4783 7.45875 13.3884 7.54859C13.2986 7.63844 13.1771 7.68926 13.05 7.69004H1.94995C1.88681 7.69044 1.82429 7.67829 1.76587 7.65431C1.70745 7.63033 1.65427 7.59498 1.60962 7.55033C1.56497 7.50568 1.5296 7.45262 1.50562 7.39421C1.48163 7.33579 1.46957 7.27318 1.46997 7.21003V6.08705C1.03341 5.89814 0.661795 5.58566 0.400635 5.18809C0.139475 4.79052 0.000244141 4.32523 0.000244141 3.84956C0.000244141 3.37388 0.139475 2.9086 0.400635 2.51103C0.661795 2.11346 1.03341 1.80095 1.46997 1.61204V0.489054C1.46957 0.425908 1.48163 0.363296 1.50562 0.30488C1.5296 0.246464 1.56497 0.193404 1.60962 0.148752C1.65427 0.1041 1.70745 0.0687599 1.76587 0.0447788C1.82429 0.0207976 1.88681 0.00864428 1.94995 0.00904269H13.05C13.1132 0.00864428 13.1757 0.0207976 13.2341 0.0447788C13.2925 0.0687599 13.3457 0.1041 13.3904 0.148752C13.435 0.193404 13.4704 0.246464 13.4944 0.30488C13.5184 0.363296 13.5304 0.425908 13.53 0.489054V1.61204C13.9726 1.79242 14.3501 2.10281 14.6125 2.50221C14.875 2.90161 15.0101 3.37123 15 3.84904V3.84904ZM5.79004 3.84904H3.87012V4.32905H5.79004V3.84904ZM8.07007 2.21305C7.9983 2.13773 7.91111 2.07881 7.81445 2.04032C7.7178 2.00183 7.61391 1.98469 7.51001 1.99006C7.4076 1.98467 7.30525 2.00185 7.21021 2.04038C7.11516 2.07892 7.0297 2.13786 6.95996 2.21305C6.82308 2.41583 6.75 2.65489 6.75 2.89955C6.75 3.1442 6.82308 3.38326 6.95996 3.58604C7.01271 3.66022 7.08371 3.71962 7.16602 3.75849C7.24832 3.79737 7.33913 3.81444 7.42993 3.80805C7.66353 3.81675 7.89203 3.73752 8.07007 3.58604C8.22164 3.3904 8.29309 3.14446 8.27002 2.89805C8.28819 2.65306 8.2172 2.40978 8.07007 2.21305V2.21305V2.21305ZM9.69995 1.91303L7.23999 5.78004H7.72998L10.1799 1.91303H9.69995V1.91303ZM10.47 4.13105C10.398 4.05607 10.3107 3.99742 10.2141 3.95912C10.1175 3.92081 10.0137 3.90374 9.90991 3.90904C9.80757 3.90352 9.70539 3.92054 9.61035 3.9589C9.51532 3.99726 9.42994 4.05604 9.36011 4.13105C9.22322 4.33383 9.1499 4.57289 9.1499 4.81754C9.1499 5.0622 9.22322 5.30126 9.36011 5.50404C9.50918 5.64764 9.70805 5.72788 9.91504 5.72788C10.122 5.72788 10.3209 5.64764 10.47 5.50404C10.6006 5.2989 10.6699 5.06075 10.6699 4.81754C10.6699 4.57434 10.6006 4.33619 10.47 4.13105V4.13105ZM9.90991 5.35606C9.87657 5.35688 9.84366 5.34934 9.81396 5.33415C9.78427 5.31895 9.75882 5.29658 9.73999 5.26905C9.67935 5.12693 9.65522 4.97185 9.66992 4.81803C9.65539 4.66357 9.67951 4.50794 9.73999 4.36506C9.75894 4.33772 9.78452 4.31553 9.81421 4.30052C9.84389 4.2855 9.87666 4.2781 9.90991 4.27903C9.94176 4.2782 9.9734 4.28571 10.0015 4.30079C10.0295 4.31587 10.0532 4.33804 10.0701 4.36506C10.1767 4.65765 10.1767 4.97845 10.0701 5.27104C10.0531 5.29794 10.0293 5.31997 10.0012 5.33488C9.97315 5.34979 9.94168 5.3571 9.90991 5.35606V5.35606ZM7.51001 3.43604C7.47785 3.43809 7.44579 3.43102 7.41748 3.41563C7.38917 3.40024 7.36586 3.37714 7.3501 3.34904C7.28004 3.20972 7.25216 3.05297 7.27002 2.89805C7.25229 2.74249 7.28016 2.58512 7.3501 2.44505C7.36613 2.41732 7.38944 2.39465 7.41772 2.37962C7.44601 2.36459 7.47806 2.35782 7.51001 2.36006C7.54178 2.35902 7.57325 2.36632 7.60132 2.38124C7.62939 2.39615 7.653 2.41814 7.66992 2.44505C7.77655 2.73764 7.77655 3.05847 7.66992 3.35105C7.65297 3.37801 7.62936 3.4001 7.60132 3.41517C7.57327 3.43024 7.54184 3.43779 7.51001 3.43705V3.43604Z" fill="#032E6D"/>
</g>
<defs>
<clipPath id="clip0">
<rect width="15" height="7.687" fill="white"/>
</clipPath>
</defs>
</svg>
