<svg width="15" height="15" viewBox="0 0 15 15" fill="none" xmlns="http://www.w3.org/2000/svg">
<g clip-path="url(#clip0)">
<path d="M2.76001 13.137H12.05V14.791H2.76001V13.137Z" fill="#fff"/>
<path d="M7.36011 8.45602C7.65185 8.45602 7.93165 8.34012 8.13794 8.13383C8.34423 7.92754 8.45996 7.64776 8.45996 7.35602C8.45996 7.06428 8.34423 6.78449 8.13794 6.5782C7.93165 6.37191 7.65185 6.25602 7.36011 6.25602C7.25872 6.25608 7.15775 6.26987 7.06006 6.29702L4.76001 4.61902L4.62988 4.74002L6.31006 7.04002C6.26089 7.20397 6.25051 7.37714 6.28003 7.54574C6.30955 7.71434 6.37803 7.87373 6.47998 8.01122C6.58193 8.14871 6.71467 8.26052 6.86743 8.33774C7.02019 8.41496 7.18894 8.45545 7.36011 8.45602V8.45602Z" fill="#fff"/>
<path d="M7.39993 -0.0100098C6.00831 0.00204836 4.64783 0.402871 3.47195 1.14722C2.29607 1.89156 1.35169 2.94979 0.745388 4.20245C0.139081 5.4551 -0.104914 6.85229 0.0407979 8.23631C0.186509 9.62033 0.716212 10.9361 1.57009 12.035H3.65994L3.80008 11.892L4.59011 11.1L3.77005 10.279L2.99002 11.067C2.28333 10.196 1.8486 9.13632 1.74002 8.01999H2.85012V6.87299H1.74002C1.84878 5.75669 2.28349 4.69705 2.99002 3.82599L3.77005 4.61499L4.59011 3.79399L3.81009 3.00199C4.66953 2.29148 5.72066 1.85224 6.8301 1.73999V2.86199H7.97V1.73899C9.07944 1.85124 10.1306 2.29048 10.99 3.00099L10.21 3.79299L11.0301 4.61399L11.8101 3.82499C12.5166 4.69605 12.9513 5.75569 13.0601 6.87199H11.95V8.01899H13.0601C12.9515 9.13533 12.5168 10.195 11.8101 11.066L11.0301 10.278L10.21 11.099L11 11.891L11.1399 12.034H13.23C14.0836 10.9351 14.613 9.61942 14.7586 8.23556C14.9041 6.85169 14.66 5.45469 14.0537 4.20222C13.4475 2.94974 12.5031 1.89165 11.3274 1.14735C10.1517 0.403058 8.79137 0.0021907 7.39993 -0.0100098V-0.0100098Z" fill="#fff"/>
</g>
<defs>
<clipPath id="clip0">
<rect width="14.81" height="14.781" fill="white"/>
</clipPath>
</defs>
</svg>
