<svg width="15" height="15" viewBox="0 0 15 15" fill="none" xmlns="http://www.w3.org/2000/svg">
<g clip-path="url(#clip0)">
<path d="M10.1399 2.77106C10.1395 2.22406 9.97689 1.68947 9.67261 1.23492C9.36832 0.780377 8.93623 0.426304 8.43066 0.217483C7.9251 0.0086607 7.36888 -0.0455227 6.83252 0.0617971C6.29616 0.169117 5.80377 0.433116 5.41748 0.820388C5.03119 1.20766 4.76831 1.70079 4.66235 2.23743C4.55639 2.77406 4.61192 3.33006 4.82202 3.8351C5.03212 4.34013 5.38746 4.7715 5.84277 5.07463C6.29809 5.37776 6.83289 5.53904 7.37988 5.53805C7.74292 5.53806 8.10243 5.46643 8.43774 5.32728C8.77306 5.18814 9.0776 4.98422 9.33398 4.72719C9.59037 4.47016 9.79359 4.16507 9.93188 3.82941C10.0702 3.49374 10.1408 3.13409 10.1399 2.77106V2.77106ZM6.72998 6.95305C4.89804 6.06431 2.89579 5.58197 0.860107 5.53905C0.751697 5.53087 0.642612 5.54488 0.539795 5.58021C0.436978 5.61555 0.342446 5.67146 0.261963 5.74455C0.181479 5.81764 0.116823 5.90638 0.0717773 6.00532C0.0267316 6.10427 0.00227407 6.21136 0 6.32005V12.7411C0.00243153 12.9437 0.0826356 13.1375 0.224121 13.2826C0.365607 13.4276 0.557539 13.5126 0.76001 13.52C2.6744 13.5713 4.56288 13.9761 6.33008 14.714C6.39027 14.7466 6.45772 14.7631 6.52612 14.7621C6.59453 14.7611 6.66151 14.7425 6.7207 14.7082C6.77989 14.6739 6.82937 14.625 6.86426 14.5661C6.89915 14.5073 6.91822 14.4404 6.91992 14.3721V7.28305C6.91988 7.21623 6.90248 7.1506 6.86914 7.0927C6.8358 7.03479 6.78775 6.98663 6.72998 6.95305V6.95305V6.95305ZM13.8999 5.53905C11.8609 5.58075 9.85509 6.06312 8.02002 6.95305C7.96457 6.98956 7.91912 7.03931 7.8877 7.09779C7.85627 7.15628 7.83993 7.22166 7.84009 7.28805V14.371C7.84162 14.4395 7.86069 14.5065 7.89551 14.5655C7.93033 14.6244 7.9796 14.6735 8.03882 14.7079C8.09803 14.7423 8.16516 14.761 8.23364 14.7621C8.30213 14.7631 8.36967 14.7466 8.42993 14.714C10.1938 13.9769 12.0789 13.5724 13.99 13.5211C14.1935 13.5135 14.3865 13.4286 14.5295 13.2836C14.6726 13.1387 14.7551 12.9447 14.76 12.7411V6.32005C14.7577 6.21136 14.7333 6.10427 14.6882 6.00532C14.6432 5.90638 14.5785 5.81764 14.498 5.74455C14.4176 5.67146 14.323 5.61555 14.2202 5.58021C14.1174 5.54488 14.0083 5.53087 13.8999 5.53905V5.53905Z" fill="#032E6D"/>
</g>
<defs>
<clipPath id="clip0">
<rect width="14.75" height="14.75" fill="white"/>
</clipPath>
</defs>
</svg>
