<svg width="15" height="17" viewBox="0 0 15 17" fill="none" xmlns="http://www.w3.org/2000/svg">
<g clip-path="url(#clip0)">
<path d="M10.6001 -0.0129395V1.61806H4.08008V-0.0129395H2.44995V1.61806H1.62988C1.41645 1.61858 1.20526 1.66117 1.0083 1.74339C0.811338 1.82562 0.632635 1.94586 0.482178 2.09724C0.331721 2.24863 0.212602 2.42819 0.131592 2.62566C0.0505816 2.82312 0.00922056 3.03463 0.0100098 3.24806L0 14.6621C0.000793014 15.0941 0.172759 15.5083 0.478271 15.8138C0.783784 16.1193 1.19782 16.2913 1.62988 16.2921H13.04C13.4721 16.2913 13.8861 16.1193 14.1917 15.8138C14.4972 15.5083 14.6691 15.0941 14.6699 14.6621V3.24806C14.6694 2.81592 14.4975 2.40162 14.1919 2.09605C13.8863 1.79048 13.4722 1.61859 13.04 1.61806H12.23V-0.0129395H10.6001ZM13.04 14.6611H1.62988V5.69406H13.04V14.6621V14.6611ZM11.4099 8.95406H7.34009V13.0301H11.4099V8.95406Z" fill="#fff"/>
</g>
<defs>
<clipPath id="clip0">
<rect width="14.69" height="16.281" fill="white"/>
</clipPath>
</defs>
</svg>
