<svg width="15" height="15" viewBox="0 0 15 15" fill="none" xmlns="http://www.w3.org/2000/svg">
<g clip-path="url(#clip0)">
<path d="M1.48999 2.95H0.0100098V13.311C0.0100098 13.7035 0.16605 14.08 0.443604 14.3575C0.721157 14.6351 1.09747 14.791 1.48999 14.791H11.8501V13.311H1.48999V2.95ZM13.3301 -0.0100098H4.44995C4.058 -0.00816896 3.68267 0.148351 3.40552 0.425507C3.12836 0.702662 2.97181 1.07805 2.96997 1.47V10.351C2.97181 10.743 3.12836 11.1183 3.40552 11.3955C3.68267 11.6726 4.058 11.8292 4.44995 11.831H13.3301C13.722 11.8292 14.0974 11.6726 14.3745 11.3955C14.6517 11.1183 14.8082 10.743 14.8101 10.351V1.47C14.8082 1.07805 14.6517 0.702662 14.3745 0.425507C14.0974 0.148351 13.722 -0.00816896 13.3301 -0.0100098V-0.0100098ZM13.3301 7.39L11.48 6.28L9.63013 7.39V1.47H13.3301V7.39Z" fill="#fff"/>
</g>
<defs>
<clipPath id="clip0">
<rect width="14.81" height="14.781" fill="white"/>
</clipPath>
</defs>
</svg>
