<svg width="16" height="17" viewBox="0 0 16 17" fill="none" xmlns="http://www.w3.org/2000/svg">
<g clip-path="url(#clip0)">
<path d="M10.95 6.44394L4.32007 2.61694" stroke="#fff" stroke-width="2" stroke-linecap="round"/>
<path d="M14.27 11.309V5.40894C14.2703 5.14985 14.202 4.8953 14.072 4.67117C13.942 4.44705 13.7551 4.26136 13.53 4.13297L8.37012 1.18396C8.14672 1.05474 7.89309 0.986694 7.63501 0.986694C7.37693 0.986694 7.12331 1.05474 6.8999 1.18396L1.73999 4.13297C1.51495 4.26136 1.32798 4.44705 1.198 4.67117C1.06802 4.8953 0.999682 5.14985 1 5.40894V11.309C0.999858 11.5679 1.06827 11.8222 1.19824 12.0461C1.32821 12.2701 1.5151 12.4556 1.73999 12.584L6.8999 15.533C7.12331 15.6622 7.37693 15.7302 7.63501 15.7302C7.89309 15.7302 8.14672 15.6622 8.37012 15.533L13.53 12.584C13.7549 12.4556 13.9418 12.2701 14.0718 12.0461C14.2017 11.8222 14.2702 11.5679 14.27 11.309Z" stroke="#fff" stroke-width="2" stroke-linecap="round"/>
<path d="M1.19995 4.64502L7.62988 8.36801L14.0701 4.64502" stroke="#fff" stroke-width="2" stroke-linecap="round"/>
<path d="M7.62988 15.791V8.36194" stroke="#fff" stroke-width="2" stroke-linecap="round"/>
</g>
<defs>
<clipPath id="clip0">
<rect width="15.28" height="16.781" fill="white"/>
</clipPath>
</defs>
</svg>
