<svg width="15" height="17" viewBox="0 0 15 17" fill="none" xmlns="http://www.w3.org/2000/svg">
<g clip-path="url(#clip0)">
<path d="M13.6599 15.242V13.661C13.6591 12.8231 13.3261 12.0197 12.7336 11.4271C12.1412 10.8345 11.3379 10.5011 10.5 10.5H4.16992C3.33199 10.5011 2.52869 10.8345 1.93628 11.4271C1.34387 12.0197 1.0108 12.8231 1.01001 13.661V15.242" stroke="#fff" stroke-width="2" stroke-linecap="round"/>
<path d="M10.4999 4.17604C10.5005 4.80236 10.315 5.41477 9.96741 5.93576C9.61977 6.45674 9.12557 6.86287 8.547 7.10273C7.96843 7.3426 7.33169 7.40542 6.71741 7.28323C6.10313 7.16104 5.53881 6.85933 5.09607 6.41632C4.65334 5.9733 4.35191 5.4089 4.23011 4.79454C4.10831 4.18018 4.17152 3.54349 4.41175 2.96508C4.65198 2.38666 5.05851 1.89252 5.57971 1.54522C6.10092 1.19791 6.71341 1.01305 7.33972 1.01404C8.17775 1.01537 8.98123 1.34899 9.57361 1.94175C10.166 2.53451 10.4991 3.33802 10.4999 4.17604Z" stroke="#fff" stroke-width="2" stroke-linecap="round"/>
</g>
<defs>
<clipPath id="clip0">
<rect width="14.66" height="16.25" fill="white"/>
</clipPath>
</defs>
</svg>
