<svg width="15" height="15" viewBox="0 0 15 15" fill="none" xmlns="http://www.w3.org/2000/svg">
<g clip-path="url(#clip0)">
<path d="M4.43994 11.831C4.14723 11.831 3.86106 11.9178 3.61768 12.0804C3.37429 12.243 3.18477 12.4742 3.07275 12.7446C2.96074 13.015 2.93142 13.3126 2.98853 13.5997C3.04563 13.8868 3.18657 14.1505 3.39355 14.3575C3.60054 14.5645 3.86428 14.7054 4.15137 14.7625C4.43846 14.8196 4.73591 14.7903 5.00635 14.6783C5.27678 14.5663 5.50803 14.3766 5.67065 14.1332C5.83328 13.8899 5.91992 13.6037 5.91992 13.311C5.92019 13.1165 5.88215 12.924 5.80786 12.7443C5.73358 12.5646 5.62454 12.4014 5.48706 12.2639C5.34958 12.1264 5.18627 12.0174 5.00659 11.9431C4.82691 11.8688 4.63437 11.8307 4.43994 11.831V11.831ZM0 -0.0100098V1.46997H1.47998L4.13989 7.08698L3.1499 8.89999C3.02514 9.11616 2.95966 9.36141 2.95996 9.61099C2.9618 10.0029 3.11835 10.3783 3.39551 10.6555C3.67266 10.9326 4.04799 11.0891 4.43994 11.091H13.3201V9.61099H4.75C4.72601 9.61073 4.70222 9.60573 4.68018 9.59628C4.65813 9.58683 4.63831 9.5731 4.62158 9.55591C4.60485 9.53872 4.59161 9.51839 4.58276 9.49609C4.57392 9.4738 4.56967 9.44998 4.57007 9.42599L4.59009 9.33698L5.25 8.12997H10.77C11.0337 8.1305 11.2925 8.06002 11.5195 7.92593C11.7465 7.79185 11.9333 7.59912 12.0601 7.36798L14.71 2.56799C14.7704 2.45953 14.8015 2.33714 14.8 2.21298C14.8 2.01672 14.722 1.8285 14.5833 1.68973C14.4445 1.55095 14.2563 1.47299 14.0601 1.47299H3.12012L2.41992 -0.00701904H0V-0.0100098ZM11.8401 11.831C11.5474 11.831 11.2612 11.9178 11.0178 12.0804C10.7744 12.243 10.5847 12.4742 10.4727 12.7446C10.3606 13.015 10.3313 13.3126 10.3884 13.5997C10.4455 13.8868 10.5865 14.1505 10.7935 14.3575C11.0004 14.5645 11.2642 14.7054 11.5513 14.7625C11.8384 14.8196 12.1358 14.7903 12.4062 14.6783C12.6767 14.5663 12.9079 14.3766 13.0706 14.1332C13.2332 13.8899 13.3201 13.6037 13.3201 13.311C13.3203 13.1165 13.282 12.924 13.2078 12.7443C13.1335 12.5646 13.0247 12.4014 12.8872 12.2639C12.7497 12.1264 12.5864 12.0174 12.4067 11.9431C12.2271 11.8688 12.0345 11.8307 11.8401 11.831Z" fill="#032E6D"/>
</g>
<defs>
<clipPath id="clip0">
<rect width="14.81" height="14.781" fill="white"/>
</clipPath>
</defs>
</svg>
